<svg id="Layer_1" enable-background="new 0 0 256 256" height="512" viewBox="0 0 256 256" width="512" xmlns="http://www.w3.org/2000/svg"><path d="m211.456 174.117h-57c-2.209 0-4-1.791-4-4v-14.333c0-2.209 1.791-4 4-4h57c2.209 0 4 1.791 4 4v14.333c0 2.21-1.79 4-4 4z" fill="#a4c9ff"/><path d="m161.047 231.765h-138.729v-19.505c0-17.878 14.493-32.37 32.37-32.37h73.989c17.878 0 32.37 14.493 32.37 32.37z" fill="#6bdddd"/><path d="m152.202 95.046c-.128 0-.252.016-.38.019v-5.623c0-32.87-26.925-59.516-60.139-59.516-33.214 0-60.139 26.646-60.139 59.516v5.623c-.128-.003-.252-.019-.38-.019-10.133 0-18.348 8.129-18.348 18.157s8.215 18.157 18.348 18.157c.666 0 1.321-.039 1.969-.108 6.206 26.33 30.055 45.949 58.551 45.949 28.496 0 52.345-19.62 58.551-45.949.647.068 1.303.108 1.969.108 10.133 0 18.348-8.129 18.348-18.157-.003-10.028-8.217-18.157-18.35-18.157z" fill="#f9cfcf"/><path d="m91.683 179.202c-28.458 0-52.925-18.766-60.086-45.846-11.447.27-20.78-8.894-20.781-20.152 0-10.575 8.262-19.274 18.728-20.094v-3.667c0-33.92 27.876-61.516 62.14-61.516s62.139 27.596 62.139 61.516v3.667c10.465.82 18.728 9.52 18.728 20.095 0 11.258-9.324 20.418-20.78 20.152-7.165 27.079-31.631 45.845-60.088 45.845zm-58.549-49.949c.917 0 1.73.63 1.944 1.541 6.162 26.147 29.438 44.408 56.604 44.408 27.165 0 50.441-18.261 56.604-44.408.229-.98 1.155-1.645 2.156-1.53.616.065 1.191.097 1.759.097 9.014 0 16.347-7.248 16.347-16.157 0-8.907-7.329-16.153-16.339-16.158-.165.011-.257.017-.351.019-.53.021-1.056-.195-1.438-.572-.384-.376-.6-.891-.6-1.428v-5.623c0-31.714-26.081-57.516-58.139-57.516-32.059 0-58.14 25.801-58.14 57.516v5.623c0 .537-.216 1.052-.6 1.428-.383.376-.882.594-1.438.572-.094-.001-.187-.007-.279-.014-.003 0-.006 0-.009 0-9.072 0-16.401 7.247-16.401 16.153 0 8.909 7.334 16.157 16.348 16.157.566 0 1.142-.032 1.759-.097.072-.008.142-.011.213-.011z" fill="#3762cc"/><path d="m103.117 151.016c-1.104 0-2-.896-2-2 0-1.447-.629-2.845-1.819-4.043-1.051-1.059-2.487-1.886-4.153-2.392-1-.304-2.136-.452-3.47-.452s-2.47.148-3.472.452c-1.665.506-3.101 1.333-4.151 2.392-1.19 1.198-1.819 2.597-1.819 4.043 0 1.104-.896 2-2 2s-2-.896-2-2c0-2.49 1.059-4.927 2.981-6.862 1.516-1.526 3.53-2.702 5.826-3.4 1.386-.42 2.901-.625 4.635-.625s3.25.204 4.633.625c2.298.699 4.313 1.875 5.828 3.4 1.923 1.935 2.981 4.372 2.981 6.862 0 1.104-.895 2-2 2z" fill="#3762cc"/><path d="m11.785 73.978c-2.722-7.287-2.915-15.277-.549-22.688l.203-.637c3.87-12.122 14.066-21.153 26.567-23.531 5.9-1.122 11.991-.694 17.676 1.244l.664.227c.038.344.096.69.181 1.034 2.73 11.158 7.741 21.442 14.55 30.279-5.909 16.464-13.139 25.85-18.651 31.046v.001l-7.234 7.343-14.028-3.252c-3.833 0-7.389 1.166-10.332 3.155z" fill="#4671c6"/><path d="m91.683 179.203c-29.029 0-53.906-19.529-60.497-47.491-.141-.595-.001-1.221.378-1.7.38-.479.957-.759 1.568-.759h117.102c.611 0 1.188.279 1.568.759.379.479.519 1.105.378 1.7-6.591 27.962-31.468 47.491-60.497 47.491zm-55.968-45.95c7.005 24.825 29.664 41.95 55.968 41.95s48.963-17.125 55.968-41.95z" fill="#3762cc"/><path d="m48.823 159.412c10.905 10.978 26.074 17.79 42.86 17.79 16.778 0 31.941-6.807 42.845-17.776v-28.174h-85.705z" fill="#e0ebfc"/><g fill="#f9a7a7"><circle cx="44.191" cy="109.687" r="3.857"/><circle cx="103.117" cy="117.767" r="3.857"/><circle cx="122.392" cy="89.332" r="3.857"/><circle cx="130.248" cy="90.903" r="2.786"/><circle cx="36.988" cy="121.624" r="3.857"/><path d="m96.651 78.208c-2.234-1.54-4.777-2.199-7.265-2.099-.883.035-1.726-.307-2.347-.936-2.798-2.832-6.942-4.254-11.03-3.408-4.384.907-7.681 4.072-8.984 8.006-.597 1.803-1.814 3.335-3.342 4.463-.877.647-1.744 1.726-2.578 3.526-.463.998-.64 2.137-.392 3.209.783 3.387 4.168 5.492 7.551 4.698.318-.075.624-.172.918-.291 1.814-.734 3.841-.907 5.709-.323.703.22 1.43.375 2.171.462 2.071.242 3.988 1.105 5.67 2.337.236.173.481.339.735.496 5.776 3.581 13.401 1.682 16.802-4.27 3.056-5.353 1.457-12.371-3.618-15.87z"/></g><path d="m162.952 49.023c-4.719-14.641-15.496-26.274-29.275-32.01l.001-.008c-48.44-23.845-74.933 4.923-74.933 4.923-1.994 1.919-2.919 4.837-2.218 7.7 5.56 22.732 20.543 41.87 41.047 52.432l.029.015c4.426 2.28 9.048 4.142 13.807 5.562 1.184.353 2.138-1.017 1.421-2.041l-9.96-14.213c-.868-1.239.657-2.751 1.841-1.824 11.013 8.624 32.412 22.911 54.057 23.628l3.525-9.653c4.051-11.093 4.283-23.263.658-34.511z" fill="#4671c6"/><circle cx="142.426" cy="109.687" fill="#f9a7a7" r="3.857"/><path d="m45.19 100.298c-.15 0-.302-.017-.452-.052l-13.798-3.199c-3.224.042-6.328 1.012-8.989 2.811-.508.343-1.145.436-1.729.248-.584-.187-1.05-.631-1.265-1.205l-9.046-24.223c-2.865-7.672-3.071-16.194-.581-23.995l.203-.637c4.098-12.834 14.864-22.371 28.099-24.888 6.229-1.184 12.693-.729 18.695 1.316l.664.227c.734.25 1.257.902 1.343 1.673.029.271.075.534.136.78 2.644 10.807 7.418 20.743 14.19 29.533.416.54.528 1.255.299 1.896-6.17 17.189-13.826 26.794-19.162 31.826l-7.182 7.292c-.38.387-.895.597-1.425.597zm-14.027-7.252c.152 0 .304.018.452.052l12.937 3 6.448-6.546c4.966-4.685 11.993-13.501 17.823-29.302-6.76-9.014-11.549-19.148-14.238-30.139-5.22-1.694-10.813-2.049-16.205-1.022-11.792 2.243-21.386 10.739-25.036 22.174l-.203.636c-2.219 6.952-2.035 14.545.519 21.38l8.212 21.991c2.862-1.461 6.03-2.224 9.291-2.224z" fill="#3762cc"/><path d="m158.769 95.188c-.021 0-.044 0-.066-.001-20.087-.666-39.869-12.653-51.674-21.355l7.439 10.616c.828 1.181.818 2.702-.026 3.873-.831 1.155-2.25 1.638-3.604 1.232-4.868-1.453-9.629-3.371-14.15-5.701-21.064-10.851-36.4-30.437-42.103-53.749-.844-3.45.203-7.114 2.734-9.577.661-.703 7.474-7.706 20.098-11.899 11.922-3.96 31.514-6.034 57.145 6.583.016.008.031.016.047.023 14.377 6.04 25.396 18.123 30.248 33.175 3.747 11.625 3.505 24.343-.683 35.812l-3.525 9.653c-.291.793-1.043 1.315-1.88 1.315zm-54.854-27.92c.706 0 1.417.238 2.029.718 10.44 8.175 30.808 21.864 51.45 23.135l3.021-8.271c3.884-10.636 4.108-22.431.634-33.212-4.511-13.993-14.767-25.211-28.141-30.777-.093-.039-.182-.084-.266-.135-19.186-9.407-37.769-11.61-53.755-6.371-12.115 3.97-18.609 10.863-18.674 10.932-.025.028-.055.058-.082.084-1.536 1.478-2.174 3.694-1.663 5.783 5.428 22.187 20.015 40.823 40.021 51.129 3.728 1.92 7.603 3.54 11.563 4.834l-8.819-12.585c-.96-1.37-.776-3.197.436-4.346.642-.609 1.441-.918 2.246-.918z" fill="#3762cc"/><path d="m91.683 179.203c-16.778 0-32.504-6.528-44.279-18.381-.372-.375-.581-.881-.581-1.41v-28.159c0-1.104.896-2 2-2h85.705c1.104 0 2 .896 2 2v28.174c0 .528-.209 1.035-.582 1.41-11.774 11.843-27.494 18.366-44.263 18.366zm-40.861-20.623c10.952 10.727 25.429 16.623 40.86 16.623 15.422 0 29.894-5.892 40.845-16.609v-25.341h-81.705z" fill="#3762cc"/><path d="m131.875 126.126h-10.853v-7.434h10.853c2.053 0 3.717 1.664 3.717 3.717 0 2.053-1.664 3.717-3.717 3.717z" fill="#a4c9ff"/><path d="m61.926 126.121c-3.803 0-6.897-3.089-6.897-6.887v-11.479c0-3.798 3.094-6.887 6.897-6.887 3.802 0 6.896 3.09 6.896 6.887v11.479c0 3.798-3.094 6.887-6.896 6.887z" fill="#3762cc"/><path d="m121.411 126.121c-3.803 0-6.897-3.089-6.897-6.887v-11.479c0-3.798 3.094-6.887 6.897-6.887 3.802 0 6.896 3.09 6.896 6.887v11.479c0 3.798-3.094 6.887-6.896 6.887z" fill="#3762cc"/><path d="m124.59 133.411v-7.285h7.434v7.285c0 2.053-1.664 3.717-3.717 3.717-2.053 0-3.717-1.664-3.717-3.717z" fill="#a4c9ff"/><path d="m132.504 105.09c-.133 0-.267-.013-.401-.041l-21.774-4.442c-1.083-.221-1.781-1.277-1.561-2.359s1.28-1.784 2.359-1.56l21.774 4.442c1.083.221 1.781 1.277 1.561 2.359-.193.948-1.027 1.601-1.958 1.601z" fill="#3762cc"/><path d="m50.86 105.09c-.931 0-1.765-.653-1.958-1.601-.221-1.083.478-2.139 1.561-2.359l21.775-4.442c1.086-.223 2.139.478 2.359 1.56.221 1.083-.478 2.139-1.561 2.359l-21.775 4.442c-.134.028-.269.041-.401.041z" fill="#3762cc"/><path d="m96.127 177.023c-.243.019-.485.04-.729.055-.377.023-.755.043-1.134.059-.857.039-1.716.065-2.582.065s-1.726-.027-2.583-.065c-.379-.016-.757-.036-1.135-.059-.243-.016-.484-.036-.726-.055-8.857-.642-17.182-3.166-24.557-7.197v6.91c0 16.066 12.566 29.091 28.067 29.091h1.866c15.501 0 28.067-13.025 28.067-29.091v-6.911c-7.373 4.031-15.698 6.556-24.554 7.198z" fill="#f9cfcf"/><path d="m161.047 233.765h-138.73c-1.104 0-2-.896-2-2v-19.505c0-18.952 15.418-34.37 34.37-34.37h6.017c-.015-.387-.021-.772-.021-1.154v-6.91c0-.706.372-1.36.979-1.72.607-.361 1.36-.374 1.979-.035 7.329 4.006 15.316 6.347 23.742 6.957l.709.054c.358.022.724.042 1.092.057 1.663.074 3.335.074 4.99 0 .371-.016.737-.035 1.103-.057l.692-.053c8.437-.611 16.424-2.952 23.754-6.958.619-.339 1.372-.326 1.979.035s.979 1.014.979 1.72v6.911c0 .38-.007.766-.021 1.154h6.016c18.952 0 34.37 15.418 34.37 34.37v19.505c.001 1.104-.895 1.999-1.999 1.999zm-136.73-4h134.729v-17.505c0-16.746-13.624-30.37-30.37-30.37h-8.161c-.566 0-1.106-.24-1.485-.661s-.563-.982-.504-1.545c.104-1.001.156-1.993.156-2.948v-3.639c-7.01 3.36-14.532 5.349-22.411 5.92l-.745.057c-.396.024-.785.044-1.177.061-1.762.08-3.568.08-5.34 0-.387-.017-.777-.037-1.166-.061l-.762-.058c-7.869-.57-15.391-2.558-22.399-5.918v3.638c0 .964.053 1.955.156 2.946.059.563-.124 1.125-.503 1.547-.38.421-.92.661-1.486.661h-8.162c-16.746 0-30.37 13.624-30.37 30.37z" fill="#3762cc"/><path d="m208.291 174.118h-25.335-25.335l-6.784 11.231c-1.885 3.12-2.881 6.696-2.881 10.341v47.761c0 2.761 2.239 5 5 5h30 30c2.761 0 5-2.239 5-5v-47.761c0-3.645-.996-7.221-2.881-10.341z" fill="#f9a7a7"/><path d="m147.956 200.451h70v29.667h-70z" fill="#a4c9ff"/><path d="m182.956 169.826c-1.13 0-2.045-.916-2.045-2.045v-9.618c0-1.13.916-2.045 2.045-2.045 1.13 0 2.045.916 2.045 2.045v9.618c.001 1.129-.915 2.045-2.045 2.045z" fill="#4671c6"/><path d="m170.956 169.826c-1.13 0-2.045-.916-2.045-2.045v-9.618c0-1.13.916-2.045 2.045-2.045 1.13 0 2.045.916 2.045 2.045v9.618c.001 1.129-.915 2.045-2.045 2.045z" fill="#4671c6"/><path d="m158.956 169.826c-1.13 0-2.045-.916-2.045-2.045v-9.618c0-1.13.916-2.045 2.045-2.045 1.13 0 2.045.916 2.045 2.045v9.618c.001 1.129-.915 2.045-2.045 2.045z" fill="#4671c6"/><path d="m194.956 169.826c-1.13 0-2.045-.916-2.045-2.045v-9.618c0-1.13.916-2.045 2.045-2.045 1.13 0 2.045.916 2.045 2.045v9.618c.001 1.129-.915 2.045-2.045 2.045z" fill="#4671c6"/><path d="m211.456 176.118h-57c-3.309 0-6-2.691-6-6v-14.333c0-3.309 2.691-6 6-6h57c3.309 0 6 2.691 6 6v14.333c0 3.308-2.691 6-6 6zm-57-22.334c-1.103 0-2 .897-2 2v14.333c0 1.103.897 2 2 2h57c1.103 0 2-.897 2-2v-14.333c0-1.103-.897-2-2-2z" fill="#3762cc"/><path d="m212.956 250.451h-60c-3.859 0-7-3.14-7-7v-47.761c0-4.009 1.096-7.942 3.17-11.375l6.784-11.23c.362-.6 1.012-.966 1.712-.966h50.669c.7 0 1.35.366 1.712.966l6.784 11.23c2.073 3.432 3.169 7.366 3.169 11.375v47.761c0 3.86-3.141 7-7 7zm-54.206-74.333-6.2 10.265c-1.697 2.809-2.594 6.027-2.594 9.307v47.761c0 1.654 1.346 3 3 3h60c1.654 0 3-1.346 3-3v-47.761c0-3.281-.896-6.499-2.593-9.307l-6.201-10.265z" fill="#3762cc"/><path d="m217.956 232.118h-70c-1.104 0-2-.896-2-2v-29.667c0-1.104.896-2 2-2h70c1.104 0 2 .896 2 2v29.667c0 1.104-.895 2-2 2zm-68-4h66v-25.667h-66z" fill="#3762cc"/><path d="m212.957 200.451c-6.075 0-11 5.382-11 12.02v11.98h22v-11.98c-.001-6.639-4.925-12.02-11-12.02z" fill="#e0ebfc"/><path d="m212.956 248.451c6.075 0 11-5.382 11-12.02v-11.98h-22v11.98c0 6.638 4.925 12.02 11 12.02z" fill="#4671c6"/><path d="m223.956 226.451h-22c-1.104 0-2-.896-2-2v-11.98c0-7.73 5.832-14.02 13-14.02s13 6.29 13 14.02v11.98c0 1.104-.895 2-2 2zm-20-4h18v-9.98c0-5.525-4.037-10.02-9-10.02s-9 4.495-9 10.02z" fill="#3762cc"/><path d="m212.956 250.451c-7.168 0-13-6.29-13-14.02v-11.98c0-1.104.896-2 2-2h22c1.104 0 2 .896 2 2v11.98c0 7.73-5.832 14.02-13 14.02zm-9-24v9.98c0 5.525 4.037 10.02 9 10.02s9-4.495 9-10.02v-9.98z" fill="#3762cc"/><circle cx="229.956" cy="231.765" fill="#a4c9ff" r="16.451"/><path d="m213.505 231.765c0 1.241.149 2.446.409 3.608h32.083c.26-1.162.41-2.367.41-3.608 0-.815-.079-1.609-.193-2.392h-32.516c-.114.783-.193 1.577-.193 2.392z" fill="#e0ebfc"/><path d="m229.956 250.216c-10.174 0-18.451-8.277-18.451-18.451s8.277-18.451 18.451-18.451 18.451 8.277 18.451 18.451-8.277 18.451-18.451 18.451zm0-32.902c-7.969 0-14.451 6.483-14.451 14.451s6.482 14.451 14.451 14.451 14.451-6.483 14.451-14.451-6.482-14.451-14.451-14.451z" fill="#3762cc"/><path d="m245.998 237.373h-32.083c-.936 0-1.747-.649-1.951-1.563-.305-1.357-.459-2.718-.459-4.045 0-.827.068-1.679.214-2.681.144-.982.986-1.711 1.979-1.711h32.517c.993 0 1.836.729 1.979 1.711.146.998.213 1.849.213 2.681 0 1.331-.154 2.691-.458 4.045-.204.914-1.015 1.563-1.951 1.563zm-30.398-4h28.713c.063-.541.095-1.079.095-1.608 0-.129-.002-.259-.007-.392h-28.889c-.005.133-.007.263-.007.392 0 .529.032 1.066.095 1.608z" fill="#3762cc"/><path d="m206.956 169.826c-1.13 0-2.045-.916-2.045-2.045v-9.618c0-1.13.916-2.045 2.045-2.045 1.13 0 2.045.916 2.045 2.045v9.618c.001 1.129-.915 2.045-2.045 2.045z" fill="#4671c6"/></svg>